<!-- source https://fonts.google.com/icons?icon.size=24&icon.color=%23e3e3e3&icon.platform=web&icon.query=chart&selected=Material+Symbols+Outlined:chart_data:FILL@0;wght@400;GRAD@0;opsz@24 -->
<svg xmlns="http://www.w3.org/2000/svg" height="24px" viewBox="0 -960 960 960" width="24px"><path d="m296-320 122-122 80 80 142-141v63h80v-200H520v80h63l-85 85-80-80-178 179 56 56Zm-96 200q-33 0-56.5-23.5T120-200v-560q0-33 23.5-56.5T200-840h560q33 0 56.5 23.5T840-760v560q0 33-23.5 56.5T760-120H200Zm0-80h560v-560H200v560Zm0-560v560-560Z"/></svg>