<!-- source https://fonts.google.com/icons?icon.size=24&icon.color=%23e3e3e3&icon.platform=web&selected=Material+Symbols+Outlined:category_search:FILL@0;wght@400;GRAD@0;opsz@24&icon.query=category -->
<svg xmlns="http://www.w3.org/2000/svg" height="24px" viewBox="0 -960 960 960" width="24px"><path d="M80-140v-320h320v320H80Zm80-80h160v-160H160v160Zm60-340 220-360 220 360H220Zm142-80h156l-78-126-78 126ZM863-42 757-148q-21 14-45.5 21t-51.5 7q-75 0-127.5-52.5T480-300q0-75 52.5-127.5T660-480q75 0 127.5 52.5T840-300q0 26-7 50.5T813-204L919-98l-56 56ZM660-200q42 0 71-29t29-71q0-42-29-71t-71-29q-42 0-71 29t-29 71q0 42 29 71t71 29ZM320-380Zm120-260Z"/></svg>